<svg width="498" height="362" viewBox="0 0 498 362" fill="none" xmlns="http://www.w3.org/2000/svg">
<path opacity="0.2" d="M98.82 101.236C101.275 96.5827 105.08 92.76 109.725 90.2827C105.08 87.8067 101.275 83.984 98.82 79.3307C96.3653 83.984 92.5586 87.8067 87.9146 90.2827C92.5586 92.76 96.3653 96.5827 98.82 101.236ZM101.017 72.516C102.973 80.0973 108.889 86.064 116.455 88.092L124.64 90.2827L116.455 92.4747C108.889 94.5027 102.973 100.469 101.017 108.052L98.8187 116.567L96.6213 108.052C94.6653 100.469 88.7507 94.5027 81.1853 92.4747L73 90.2827L81.1853 88.092C88.7507 86.064 94.6653 80.0973 96.6213 72.516L98.8187 64L101.017 72.516" fill="white"/>
<path opacity="0.2" d="M436 91.3758C437.521 88.4546 439.879 86.0548 442.758 84.4996C439.879 82.9452 437.521 80.5454 436 77.6242C434.479 80.5454 432.12 82.9452 429.242 84.4996C432.12 86.0548 434.479 88.4546 436 91.3758ZM437.362 73.3461C438.574 78.1055 442.24 81.8512 446.928 83.1243L452 84.4996L446.928 85.8757C442.24 87.1488 438.574 90.8945 437.362 95.6547L435.999 101L434.638 95.6547C433.425 90.8945 429.76 87.1488 425.072 85.8757L420 84.4996L425.072 83.1243C429.76 81.8512 433.425 78.1055 434.638 73.3461L435.999 68L437.362 73.3461" fill="white"/>
<path opacity="0.2" d="M17 282.376C18.5211 279.455 20.8792 277.055 23.7578 275.5C20.8792 273.945 18.5211 271.545 17 268.624C15.4789 271.545 13.12 273.945 10.2422 275.5C13.12 277.055 15.4789 279.455 17 282.376ZM18.3616 264.346C19.5737 269.106 23.2397 272.851 27.9278 274.124L33 275.5L27.9278 276.876C23.2397 278.149 19.5737 281.895 18.3616 286.655L16.9992 292L15.6375 286.655C14.4255 281.895 10.7603 278.149 6.07224 276.876L1 275.5L6.07224 274.124C10.7603 272.851 14.4255 269.106 15.6375 264.346L16.9992 259L18.3616 264.346" fill="white"/>
<path opacity="0.2" d="M56.2933 182.499C56.2933 178.754 53.2463 175.706 49.4994 175.706C45.7547 175.706 42.7056 178.754 42.7056 182.499C42.7056 186.245 45.7547 189.294 49.4994 189.294C53.2463 189.294 56.2933 186.245 56.2933 182.499ZM60 182.499C60 188.29 55.2885 193 49.4994 193C43.7103 193 39 188.29 39 182.499C39 176.709 43.7103 172 49.4994 172C55.2885 172 60 176.709 60 182.499Z" fill="white"/>
<path opacity="0.2" d="M312.293 10.4995C312.293 6.75363 309.246 3.70556 305.499 3.70556C301.755 3.70556 298.706 6.75363 298.706 10.4995C298.706 14.2453 301.755 17.2944 305.499 17.2944C309.246 17.2944 312.293 14.2453 312.293 10.4995ZM316 10.4995C316 16.2897 311.289 21 305.499 21C299.71 21 295 16.2897 295 10.4995C295 4.70926 299.71 -1.24273e-08 305.499 -1.24273e-08C311.289 -1.24273e-08 316 4.70926 316 10.4995Z" fill="white"/>
<path opacity="0.2" d="M408.183 133.861C408.183 129.273 404.449 125.54 399.861 125.54C395.273 125.54 391.54 129.273 391.54 133.861C391.54 138.449 395.273 142.184 399.861 142.184C404.449 142.184 408.183 138.449 408.183 133.861ZM412.721 133.861C412.721 140.953 406.952 146.723 399.861 146.723C392.769 146.723 387 140.953 387 133.861C387 126.769 392.769 121 399.861 121C406.952 121 412.721 126.769 412.721 133.861Z" fill="white"/>
<path opacity="0.2" d="M264.183 18.8613C264.183 14.2733 260.449 10.54 255.861 10.54C251.273 10.54 247.54 14.2733 247.54 18.8613C247.54 23.4493 251.273 27.184 255.861 27.184C260.449 27.184 264.183 23.4493 264.183 18.8613ZM268.721 18.8613C268.721 25.9533 262.952 31.7227 255.861 31.7227C248.769 31.7227 243 25.9533 243 18.8613C243 11.7693 248.769 6 255.861 6C262.952 6 268.721 11.7693 268.721 18.8613Z" fill="white"/>
<g opacity="0.2">
<path d="M442.196 204H437.657V237.853H442.196V204Z" fill="white"/>
<path d="M456.853 218.656H423V223.196H456.853V218.656Z" fill="white"/>
</g>
<g opacity="0.2">
<path d="M159.257 39H156.596V58.8533H159.257V39Z" fill="white"/>
<path d="M167.853 47.595H148V50.2575H167.853V47.595Z" fill="white"/>
</g>
<g opacity="0.2">
<path d="M32.8719 121L17 136.873L19.1281 139.001L35 123.128L32.8719 121Z" fill="white"/>
<path d="M19.1281 121L17 123.128L32.8719 139.001L35 136.873L19.1281 121Z" fill="white"/>
</g>
<g opacity="0.2">
<path d="M352.872 42L337 57.8728L339.128 60.0009L355 44.1281L352.872 42Z" fill="white"/>
<path d="M339.128 42L337 44.1281L352.872 60.0009L355 57.8728L339.128 42Z" fill="white"/>
</g>
<path d="M104.469 210.966L0.999949 171.44" stroke="white" stroke-width="2" stroke-miterlimit="10" stroke-linecap="round"/>
<path d="M124.498 251.149L71.4161 230.869" stroke="white" stroke-width="2" stroke-miterlimit="10" stroke-linecap="round"/>
<path d="M385.985 204.582L494.008 180.875" stroke="white" stroke-width="2" stroke-miterlimit="10" stroke-linecap="round"/>
<path d="M361.478 239.433L416.897 227.273" stroke="white" stroke-width="2" stroke-miterlimit="10" stroke-linecap="round"/>
<path d="M69.3301 223.605L53.3249 229.237C53.2242 229.262 53.1169 229.257 53.016 229.224C52.915 229.191 52.8247 229.13 52.7559 229.049C52.6872 228.968 52.6429 228.871 52.6284 228.768C52.614 228.666 52.6299 228.563 52.6744 228.472L61.4448 214.224L69.3301 223.605Z" fill="#FFB947"/>
<path d="M52.6951 228.802C52.6575 228.891 52.6462 228.99 52.6623 229.087C52.6784 229.184 52.7213 229.277 52.7864 229.354C52.8515 229.431 52.9362 229.49 53.0313 229.525C53.1264 229.56 53.2282 229.569 53.3256 229.551L56.4541 228.447C55.9533 228.239 55.5142 227.902 55.1849 227.475C54.8556 227.047 54.6487 226.544 54.5868 226.021L54.5554 225.73L52.6951 228.802Z" fill="#1A2E35"/>
<path d="M116.438 168.626L115.228 169.588L113.769 170.752L61.4504 212.738C61.2616 214.623 61.8145 216.54 62.9975 218.104C64.6914 220.535 67.3883 222.247 69.3069 222.092L121.592 180.129L124.375 177.88C122.487 179.247 114.561 169.999 116.438 168.626Z" fill="#FFB947"/>
<path d="M111.823 171.268L109.107 173.415C108.299 174.018 109.25 176.094 110.746 178.208C112.722 180.991 116.029 183.463 117.117 182.686L119.104 181.091L119.807 180.506C118.74 181.305 115.434 178.813 113.436 176.027C112.001 174.02 111.075 171.999 111.722 171.318C111.75 171.293 111.785 171.276 111.823 171.268Z" fill="#ECECEC"/>
<path d="M111.151 171.719C109.287 173.117 117.259 182.38 119.14 180.983L121.84 178.82C119.976 180.218 111.987 170.953 113.857 169.56L111.151 171.719Z" fill="#D38C24"/>
<path d="M116.429 167.378L113.756 169.513C111.91 170.87 119.545 179.872 121.561 178.903C121.602 178.885 121.642 178.864 121.678 178.838L124.375 176.647C122.485 178.016 114.549 168.754 116.429 167.378Z" fill="#ECECEC"/>
<path opacity="0.15" d="M52.7321 227.843L53.3258 228.028L64.1224 219.76L119.502 175.288C119.654 175.456 119.752 175.454 119.807 175.314C117.49 172.848 115.468 169.606 116.517 168.837L115.306 169.8L113.846 170.966L61.4728 213.012L52.6961 227.275C52.6419 227.359 52.6163 227.459 52.6228 227.56C52.6292 227.662 52.6674 227.761 52.7321 227.843V227.843Z" fill="black"/>
<path d="M127.734 157.982L116.419 167.039C115.612 167.626 116.535 169.715 118.009 171.787C119.984 174.574 123.281 177.091 124.374 176.321L135.691 167.232C137.954 165.411 134.526 160.319 131.212 158.318C130.01 157.532 128.747 157.296 127.734 157.982Z" fill="#FFB947"/>
<path opacity="0.1" d="M127.745 161.725C129.04 164.455 131.9 166.883 134.178 167.174C134.516 167.24 134.862 167.226 135.186 167.133C135.509 167.04 135.802 166.871 136.038 166.64C137.607 164.604 134.377 159.936 131.238 158.029C130.028 157.285 128.797 157.046 127.791 157.685C126.942 158.375 126.867 159.879 127.745 161.725Z" fill="black"/>
<path d="M295.056 288.765H339.97V285.587H296.037L279.679 273.963L277.895 276.567L295.056 288.765Z" fill="#FFF6CA"/>
<path d="M206.325 273.466L211.517 256.73L178.267 266.013L171.253 283.196L206.325 273.466Z" fill="#BCE843"/>
<path d="M338.845 291.348L331.853 276.403L173.182 149.728L165.564 160.391L338.845 291.348Z" fill="#E6E7E8"/>
<path d="M135.474 140.653L162.515 160.752C164.249 162.147 166.447 162.8 168.646 162.574C170.844 162.347 172.869 161.259 174.295 159.538C175.72 157.818 176.433 155.6 176.283 153.354C176.134 151.107 175.133 149.008 173.493 147.5C173.218 147.203 172.916 146.933 172.593 146.692L145.557 126.593C144.054 125.47 142.231 124.881 140.368 124.916C138.504 124.95 136.704 125.606 135.241 126.784C133.779 127.961 132.736 129.594 132.272 131.434C131.807 133.273 131.948 135.217 132.672 136.967C132.976 137.736 133.396 138.453 133.915 139.091C134.365 139.673 134.889 140.191 135.474 140.631V140.653Z" fill="#353635"/>
<path d="M133.894 139.113L153.085 132.239L150.744 130.491L132.667 137.011C132.962 137.774 133.377 138.484 133.894 139.113V139.113Z" fill="#FCB91F"/>
<path d="M138.035 142.553L140.425 144.306L159.927 137.284L157.559 135.526L138.035 142.553Z" fill="#FCB91F"/>
<path d="M144.862 147.631L147.23 149.367L166.748 142.384L164.375 140.615L144.862 147.631Z" fill="#FCB91F"/>
<path d="M151.714 152.725L154.066 154.472L173.493 147.494C173.213 147.203 172.909 146.938 172.582 146.703L171.232 145.703L151.714 152.725Z" fill="#FCB91F"/>
<path d="M134.355 287.018L142.097 272.45L306.993 154.27L314.065 165.333L134.355 287.018Z" fill="#E6E7E8"/>
<path d="M345.103 147.205L317.076 165.846C315.271 167.046 313.087 167.503 310.964 167.127C308.84 166.75 306.936 165.568 305.634 163.818C304.333 162.067 303.73 159.879 303.949 157.694C304.167 155.509 305.19 153.49 306.811 152.043C307.104 151.765 307.421 151.514 307.759 151.295L335.77 132.616C337.329 131.585 339.176 131.103 341.029 131.241C342.883 131.379 344.641 132.131 346.036 133.382C347.431 134.633 348.388 136.314 348.759 138.17C349.13 140.025 348.896 141.954 348.092 143.661C347.749 144.416 347.294 145.112 346.742 145.725C346.253 146.289 345.695 146.787 345.081 147.205H345.103Z" fill="#353635"/>
<path d="M346.758 145.747L327.936 137.841L330.364 136.203L348.093 143.672C347.755 144.425 347.305 145.119 346.758 145.731V145.747Z" fill="#FCB91F"/>
<path d="M342.445 148.963L339.996 150.601L320.869 142.558L323.312 140.92L342.445 148.963Z" fill="#FCB91F"/>
<path d="M335.373 153.675L332.914 155.286L313.792 147.287L316.245 145.682L335.373 153.675Z" fill="#FCB91F"/>
<path d="M328.263 158.398L325.836 160.036L306.805 152.037C307.101 151.762 307.418 151.512 307.754 151.289L309.141 150.366L328.263 158.398Z" fill="#FCB91F"/>
<path d="M112.677 177.968C111.525 177.236 93.8283 166.638 84.2807 192.191C84.2445 192.331 84.2159 192.474 84.195 192.617C83.3163 195.675 85.1969 198.077 101.415 194.954C101.718 194.895 101.991 194.727 102.181 194.479L113.282 179.999C113.398 179.836 113.479 179.65 113.518 179.453C113.555 179.273 113.555 179.087 113.518 178.907C113.475 178.718 113.39 178.542 113.27 178.392C113.151 178.241 112.999 178.121 112.827 178.038V178.038C112.78 178.021 112.735 177.999 112.693 177.973L112.677 177.968Z" fill="#0F2336"/>
<path d="M211.678 209.931L110.534 174.053C110.534 174.053 100.756 184.165 102.326 197.258L197.657 245.095L211.678 209.931Z" fill="#091D28"/>
<path d="M359.853 180.162C360.86 179.125 376.387 163.782 392.401 187.523C392.472 187.657 392.535 187.795 392.589 187.938C394.239 190.843 392.899 193.769 375.535 194.697C375.21 194.715 374.889 194.61 374.635 194.403L359.746 182.39C359.59 182.264 359.463 182.103 359.376 181.921C359.287 181.739 359.241 181.539 359.242 181.336C359.241 181.133 359.285 180.931 359.37 180.747C359.454 180.562 359.579 180.399 359.735 180.272V180.272C359.778 180.242 359.817 180.207 359.853 180.168V180.162Z" fill="#0F2336"/>
<path d="M265.572 210.21L366.705 174.337C366.705 174.337 376.478 184.443 374.913 197.537L279.588 245.373L265.572 210.21Z" fill="#091D28"/>
<path d="M284.196 199.137C284.196 199.137 301.716 214.6 314.494 259.171C314.494 259.171 426.166 317.316 432.847 346.386C432.847 346.386 438.923 362.024 386.604 356.7C384.144 356.439 381.792 355.536 379.773 354.079C367.311 345.168 318.105 311.042 269.58 290.982L199.479 290.054C199.479 290.054 203.738 324.305 202.222 338.698C201.928 341.439 200.642 343.969 198.616 345.796C192.358 351.437 175.904 364.137 156.825 361.691C155.768 361.547 154.8 361.012 154.104 360.189C153.408 359.366 153.032 358.311 153.048 357.224C153.048 354.118 153.546 348.554 155.191 338.567C155.191 338.567 157.597 301.689 153.048 280.542C148.499 259.395 150.369 246.405 185.527 248.256C185.527 248.256 179.757 227.54 181.578 201.561L284.196 199.137Z" fill="#0F2336"/>
<path d="M306.928 244.276L190.664 248.338H186.019L185.773 247.186C185.773 247.186 185.291 245.439 185.189 245.215L184.085 239.269C184.203 239.045 183.271 237.631 184.567 237.702L305.305 233.426C305.664 233.426 306.328 235.25 306.333 235.49L308.359 240.53L309.607 244.03C309.586 244.232 307.287 244.265 306.928 244.276Z" fill="#091D28"/>
<path d="M181.358 209.576C181.3 210.261 181.278 210.948 181.294 211.635C181.342 213.273 183.191 214.622 185.425 214.638L290.92 215.146C292.634 215.146 294.022 214.141 294.043 212.874L293.786 210.963L181.358 209.576Z" fill="#091D28"/>
<path opacity="0.2" d="M172.754 89.9061L227.039 90.4958C227.428 90.5 227.814 90.4258 228.174 90.2774C228.535 90.1259 228.863 89.9032 229.139 89.6221C229.415 89.3409 229.633 89.007 229.782 88.6394C229.932 88.2724 230.012 87.8795 230.017 87.4818V87.4818C230.024 86.8836 229.855 86.2969 229.534 85.7962C229.213 85.2956 228.752 84.9035 228.212 84.6699C227.855 84.511 227.47 84.4292 227.081 84.4296L172.796 83.8836C172.406 83.8787 172.018 83.953 171.656 84.102C171.293 84.251 170.963 84.4719 170.685 84.7518C170.408 85.0302 170.187 85.3625 170.037 85.7291C169.882 86.0945 169.801 86.4885 169.801 86.8867V86.8867C169.804 87.6847 170.116 88.4494 170.669 89.0148C171.221 89.5801 171.97 89.9004 172.754 89.9061Z" fill="white"/>
<path d="M159.654 176.766V176.832C159.571 185.93 163.038 194.689 169.291 201.183C175.545 207.677 184.073 211.374 193.001 211.46L283.547 212.394H283.601C292.526 212.471 301.115 208.932 307.48 202.556C313.845 196.18 317.464 187.489 317.542 178.393L318.126 120.619L313.433 114.706C313.502 107.34 316.01 100.166 311.761 94.2196C311.195 93.4117 310.589 92.6335 309.945 91.8881C306.831 88.2017 302.98 85.2361 298.65 83.1898C294.32 81.1435 289.611 80.0639 284.838 80.0232L160.667 78.7455L159.654 176.766ZM181.278 147.314C181.321 142.467 183.248 137.835 186.636 134.434C188.321 132.756 190.312 131.429 192.497 130.53C194.692 129.632 197.039 129.187 199.403 129.219L272.944 129.962C277.7 130.021 282.239 131.998 285.568 135.46C288.896 138.922 290.744 143.587 290.705 148.434C290.696 149.588 290.581 150.74 290.362 151.873C289.514 156.026 287.279 159.75 284.038 162.413C280.798 165.075 276.752 166.51 272.59 166.474L199.028 165.715C194.861 165.664 190.841 164.141 187.653 161.406C184.466 158.67 182.309 154.892 181.551 150.716C181.357 149.58 181.262 148.429 181.267 147.276L181.278 147.314Z" fill="#0F2336"/>
<path d="M177.613 125.943H297.499V170.782H177.613V125.943Z" fill="#0F2336"/>
<path d="M299.063 148.281C299.064 149.528 298.951 150.773 298.726 151.999C297.878 156.457 295.539 160.478 292.107 163.375C288.676 166.273 284.365 167.867 279.909 167.888L201.15 168.014C196.057 168.022 191.17 165.968 187.563 162.303C183.957 158.639 181.926 153.665 181.918 148.474C181.91 143.284 183.926 138.304 187.521 134.628C191.117 130.953 195.998 128.883 201.091 128.875L279.85 128.75C284.942 128.744 289.827 130.797 293.435 134.459C297.042 138.121 299.076 143.092 299.09 148.281H299.063Z" fill="#F0977E"/>
<path d="M298.726 151.999C297.878 156.457 295.539 160.478 292.108 163.375C288.676 166.273 284.365 167.868 279.909 167.888L201.15 168.014C196.687 168.018 192.362 166.441 188.915 163.552C185.469 160.663 183.115 156.643 182.258 152.179C183.117 147.732 185.458 143.723 188.884 140.832C192.31 137.942 196.611 136.347 201.059 136.318L279.818 136.197C284.281 136.189 288.608 137.765 292.055 140.654C295.501 143.544 297.853 147.567 298.704 152.032L298.726 151.999Z" fill="#F9C197"/>
<path d="M350.096 80.3673L328.724 68L304.909 110.753L321.277 120.221L324.69 116.776L329.163 117.939L350.096 80.3673Z" fill="#F26E26"/>
<path d="M359.922 89.3601L364.16 114.018L316.669 122.492L312.431 97.8234L359.922 89.3601Z" fill="#F26E26"/>
<path d="M160.153 94.6019L159.885 120.887L319.37 122.525L319.423 116.683C319.512 109.31 317.235 102.109 312.94 96.1744L160.153 94.6019Z" fill="#F26E26"/>
<path fill-rule="evenodd" clip-rule="evenodd" d="M268.658 148.379L247.066 152.332C247.066 152.332 264.216 167.855 268.658 148.379Z" fill="#0F2336"/>
<path fill-rule="evenodd" clip-rule="evenodd" d="M210.692 148.379L232.289 152.332C232.289 152.332 215.08 167.855 210.692 148.379Z" fill="#0F2336"/>
<path opacity="0.2" d="M165.939 105.397L220.224 105.986C220.613 105.991 220.999 105.916 221.36 105.768C222.086 105.458 222.663 104.87 222.967 104.13C223.118 103.763 223.198 103.37 223.203 102.972V102.972C223.212 102.169 222.907 101.395 222.356 100.821C222.085 100.536 221.761 100.31 221.403 100.155C221.044 99.9973 220.658 99.9138 220.267 99.9092L165.982 99.3632C165.591 99.359 165.203 99.4332 164.841 99.5816C164.481 99.7336 164.154 99.9542 163.876 100.231C163.597 100.508 163.375 100.838 163.223 101.203C163.067 101.569 162.987 101.963 162.987 102.361C162.988 103.158 163.297 103.923 163.846 104.491C164.395 105.058 165.141 105.384 165.923 105.397H165.939Z" fill="white"/>
<path opacity="0.2" d="M229.83 117.485L255.842 117.731C256.172 117.737 256.5 117.676 256.807 117.551C257.115 117.428 257.396 117.242 257.632 117.005C257.86 116.767 258.042 116.487 258.167 116.18C258.297 115.871 258.366 115.539 258.371 115.203V115.203C258.378 114.522 258.12 113.866 257.653 113.378C257.186 112.891 256.548 112.613 255.88 112.604V112.604L229.862 112.347C229.194 112.34 228.55 112.603 228.072 113.079C227.594 113.555 227.32 114.205 227.312 114.886C227.311 115.225 227.373 115.56 227.494 115.875C227.616 116.189 227.798 116.475 228.03 116.716C228.262 116.949 228.537 117.135 228.839 117.262C229.143 117.398 229.471 117.469 229.803 117.469L229.83 117.485Z" fill="white"/>
<path d="M414.314 338.103C416.575 338.447 423.273 342.138 425.566 349.7C425.593 349.835 425.593 349.975 425.566 350.11C425.538 350.245 425.481 350.372 425.4 350.481C425.316 350.59 425.212 350.681 425.094 350.749C424.975 350.814 424.843 350.851 424.708 350.858C420.765 351.546 407.114 353.522 394.871 350.312C394.705 350.275 394.549 350.201 394.416 350.093C394.285 349.986 394.177 349.852 394.1 349.7C392.958 347.047 388.517 334.199 414.314 338.103Z" fill="#091D28"/>
<path d="M185.291 343.672C185.468 344.633 175.507 355.723 162.718 356.58C162.718 356.58 151.119 357.345 160.634 337.322C160.634 337.317 181.594 323.907 185.291 343.672Z" fill="#091D28"/>
</svg>
